<?xml version="1.0" encoding="utf-8"?>
<!-- Generator: Adobe Illustrator 26.0.1, SVG Export Plug-In . SVG Version: 6.00 Build 0)  -->
<svg version="1.1" id="Layer_1" xmlns="http://www.w3.org/2000/svg" xmlns:xlink="http://www.w3.org/1999/xlink" x="0px" y="0px"
	 viewBox="0 0 141.7 141.7" style="enable-background:new 0 0 141.7 141.7;" xml:space="preserve">
<style type="text/css">
	.st0{fill:#FFFFFF;}
	.st1{fill:url(#SVGID_1_);}
	.st2{fill:none;stroke:#E94E1B;stroke-linecap:round;stroke-miterlimit:10;}
	.st3{fill:#0BBBEF;}
	.st4{fill:#E6332A;stroke:#FFFFFF;stroke-width:0.6;stroke-miterlimit:10;}
	.st5{fill:#EF7900;}
	.st6{fill:#005988;}
	.st7{fill:#F39200;}
	.st8{fill:url(#SVGID_00000001624067553623592610000012373059378972647614_);}
</style>
<path class="st0" d="M307.3,160.4h-78.5c-17.2,0-31.1-13.9-31.1-31.1V55.1c0-17.2,13.9-31.1,31.1-31.1h78.5
	c17.2,0,31.1,13.9,31.1,31.1v74.2C338.4,146.5,324.5,160.4,307.3,160.4z"/>
<linearGradient id="SVGID_1_" gradientUnits="userSpaceOnUse" x1="59.514" y1="33.5663" x2="59.514" y2="60.2689" gradientTransform="matrix(1 0 0 1 5.595041e-02 0.1094)">
	<stop  offset="4.993059e-09" style="stop-color:#2D2E83"/>
	<stop  offset="1" style="stop-color:#36A9E1"/>
</linearGradient>
<polygon class="st1" points="59.1,33.7 70.2,33.7 61.6,45.6 67.6,45.6 48.9,60.4 56.9,45.9 50.7,45.8 "/>
<polyline class="st2" points="40.9,77.3 55.8,67.2 69.9,75.6 82.7,66.5 "/>
<rect x="36.6" y="78.9" class="st3" width="7.7" height="22.5"/>
<circle class="st4" cx="40.5" cy="77.4" r="3.9"/>
<g>
	<g>
		<path class="st5" d="M16.9,126.5V116h8.2v2.3h-5.3v5.9h5.5v2.3H16.9z M19.6,122.3v-2.2h4.9v2.2H19.6z"/>
		<path class="st5" d="M26.9,126.5V116h2.4l5.8,7H34v-7h2.9v10.5h-2.4l-5.8-7h1.2v7H26.9z"/>
		<path class="st5" d="M39,126.5V116h8.2v2.3H42v5.9h5.5v2.3H39z M41.7,122.3v-2.2h4.9v2.2H41.7z"/>
		<path class="st5" d="M49.1,126.5V116h4.7c1.5,0,2.7,0.3,3.5,1c0.8,0.7,1.2,1.6,1.2,2.8c0,0.8-0.2,1.5-0.6,2.1
			c-0.4,0.6-0.9,1-1.6,1.3c-0.7,0.3-1.5,0.5-2.5,0.5h-3.1l1.3-1.3v4H49.1z M52.1,122.8l-1.3-1.4h3c0.6,0,1.1-0.1,1.4-0.4
			c0.3-0.3,0.5-0.6,0.5-1.1c0-0.5-0.2-0.8-0.5-1.1c-0.3-0.3-0.8-0.4-1.4-0.4h-3l1.3-1.4V122.8z M55.6,126.5l-2.6-3.8h3.2l2.6,3.8
			H55.6z"/>
		<path class="st5" d="M65.4,126.7c-0.8,0-1.6-0.1-2.3-0.4c-0.7-0.3-1.3-0.6-1.8-1.1c-0.5-0.5-0.9-1.1-1.2-1.7s-0.4-1.4-0.4-2.2
			s0.1-1.5,0.4-2.2s0.7-1.2,1.2-1.7s1.1-0.9,1.9-1.1s1.5-0.4,2.4-0.4c1,0,1.9,0.2,2.6,0.5c0.8,0.3,1.4,0.8,1.9,1.4l-1.9,1.7
			c-0.4-0.4-0.7-0.7-1.2-0.9c-0.4-0.2-0.9-0.3-1.4-0.3c-0.4,0-0.9,0.1-1.2,0.2c-0.4,0.1-0.7,0.3-0.9,0.6c-0.3,0.3-0.5,0.6-0.6,1
			c-0.1,0.4-0.2,0.8-0.2,1.2c0,0.4,0.1,0.8,0.2,1.2s0.3,0.7,0.6,1c0.3,0.3,0.6,0.5,0.9,0.6c0.4,0.1,0.8,0.2,1.2,0.2s0.9-0.1,1.3-0.2
			c0.4-0.1,0.8-0.4,1.3-0.7l1.7,2.1c-0.6,0.4-1.3,0.8-2.1,1C67,126.6,66.2,126.7,65.4,126.7z M69.9,125.4l-2.6-0.4v-4h2.6V125.4z"/>
		<path class="st5" d="M74.4,126.5v-4.4l0.7,1.8l-4.7-7.8h3.2l3.4,5.7h-1.8l3.4-5.7h2.9l-4.7,7.8l0.6-1.8v4.4H74.4z"/>
	</g>
</g>
<g>
	<g>
		<path class="st6" d="M84.5,126.5V116h3v8.1h5v2.4H84.5z"/>
		<path class="st6" d="M93.7,126.5V116h8.2v2.3h-5.3v5.9h5.5v2.3H93.7z M96.4,122.3v-2.2h4.9v2.2H96.4z"/>
		<path class="st6" d="M103.8,126.5V116h2.4l5.8,7h-1.2v-7h2.9v10.5h-2.4l-5.8-7h1.2v7H103.8z"/>
		<path class="st6" d="M119.5,126.7c-0.9,0-1.7-0.1-2.5-0.3s-1.4-0.5-1.9-0.8l1-2.2c0.5,0.3,1,0.5,1.6,0.7c0.6,0.2,1.2,0.3,1.8,0.3
			c0.4,0,0.8,0,1-0.1c0.2-0.1,0.4-0.2,0.5-0.3s0.2-0.3,0.2-0.5c0-0.2-0.1-0.4-0.3-0.5s-0.5-0.2-0.9-0.3c-0.4-0.1-0.7-0.2-1.2-0.3
			s-0.8-0.2-1.3-0.3c-0.4-0.1-0.8-0.3-1.2-0.6c-0.3-0.2-0.6-0.5-0.8-0.9s-0.3-0.8-0.3-1.4c0-0.6,0.2-1.2,0.5-1.7
			c0.3-0.5,0.9-0.9,1.5-1.2c0.7-0.3,1.5-0.5,2.6-0.5c0.7,0,1.4,0.1,2,0.2c0.7,0.2,1.3,0.4,1.8,0.7l-0.9,2.2c-0.5-0.3-1-0.5-1.5-0.6
			s-1-0.2-1.4-0.2c-0.4,0-0.7,0-1,0.1c-0.2,0.1-0.4,0.2-0.5,0.3s-0.2,0.3-0.2,0.5c0,0.2,0.1,0.4,0.3,0.6c0.2,0.1,0.5,0.2,0.9,0.3
			c0.3,0.1,0.7,0.2,1.2,0.3c0.4,0.1,0.8,0.2,1.3,0.3s0.8,0.3,1.2,0.5c0.4,0.2,0.6,0.5,0.9,0.9c0.2,0.4,0.3,0.8,0.3,1.4
			c0,0.6-0.2,1.2-0.5,1.7c-0.3,0.5-0.9,0.9-1.6,1.2C121.4,126.6,120.6,126.7,119.5,126.7z"/>
	</g>
</g>
<rect x="51.8" y="69.6" class="st3" width="7.7" height="33.1"/>
<circle class="st4" cx="55.7" cy="68.1" r="3.9"/>
<rect x="66.4" y="74.9" class="st3" width="7.7" height="26.6"/>
<circle class="st4" cx="70.3" cy="74" r="3.9"/>
<rect x="79.6" y="67.8" class="st3" width="7.7" height="27.9"/>
<circle class="st4" cx="83.5" cy="66.5" r="3.9"/>
<g>
	<path class="st7" d="M128.8,89.7l-20.2-13.3c-0.9-0.6-1.8-1-2.7-1.3c1.7-5.3,2.5-11,2.2-16.8c-1.2-26.8-23.9-47.6-50.7-46.4
		C30.6,13.1,9.8,35.8,11,62.6c1.2,26.8,23.9,47.6,50.7,46.4c12.7-0.6,24-6,32.3-14.3c0.5,0.5,1,0.9,1.6,1.3l20.1,13.3
		c2.2,1.4,4.6,2,7,1.9c3.6-0.2,7.1-2,9.3-5.2C135.6,100.6,134.2,93.2,128.8,89.7z M61.2,95.5c-3.5,0.2-7-0.2-10.3-1
		c-1.6-0.4-3.2-0.9-4.7-1.6c-12.2-5.1-21-16.8-21.7-30.9C23.8,46.1,33.7,32.2,48,27.3c3.2-1.1,6.5-1.8,10-2c6.2-0.3,12,1.1,17.2,3.6
		c11,5.5,18.9,16.7,19.5,29.9C95.5,78.2,80.5,94.6,61.2,95.5z"/>
	
		<linearGradient id="SVGID_00000031918365603991890290000004509017782129909904_" gradientUnits="userSpaceOnUse" x1="71.9278" y1="112.1108" x2="71.9278" y2="10.9788" gradientTransform="matrix(0.9996 -2.858995e-02 2.858995e-02 0.9996 -1.6667 2.5805)">
		<stop  offset="9.986119e-09" style="stop-color:#009EDE"/>
		<stop  offset="1" style="stop-color:#27418F"/>
	</linearGradient>
	<path style="fill:url(#SVGID_00000031918365603991890290000004509017782129909904_);" d="M128.8,89.7l-20.2-13.3
		c-0.9-0.6-1.8-1-2.7-1.3c1.7-5.3,2.5-11,2.2-16.8c-1.2-26.8-23.9-47.6-50.7-46.4C30.6,13.1,9.8,35.8,11,62.6
		c1.2,26.8,23.9,47.6,50.7,46.4c12.7-0.6,24-6,32.3-14.3c0.5,0.5,1,0.9,1.6,1.3l20.1,13.3c2.2,1.4,4.6,2,7,1.9
		c3.6-0.2,7.1-2,9.3-5.2C135.6,100.6,134.2,93.2,128.8,89.7z M61.2,95.5c-3.5,0.2-7-0.2-10.3-1c-1.6-0.4-3.2-0.9-4.7-1.6
		c-12.2-5.1-21-16.8-21.7-30.9C23.8,46.1,33.7,32.2,48,27.3c3.2-1.1,6.5-1.8,10-2c6.2-0.3,12,1.1,17.2,3.6
		c11,5.5,18.9,16.7,19.5,29.9C95.5,78.2,80.5,94.6,61.2,95.5z"/>
</g>
</svg>
